<?xml version="1.0" standalone="no"?>
<!DOCTYPE svg PUBLIC "-//W3C//DTD SVG 1.0//EN" "http://www.w3.org/TR/2001/REC-SVG-20010904/DTD/svg10.dtd">
<svg xmlns="http://www.w3.org/2000/svg" xmlns:xlink="http://www.w3.org/1999/xlink" id="body_1" width="1024" height="768">

<g transform="matrix(1.3963636 0 0 1.3963636 23.272713 -0)">
    <path d="M285.95966 165.33986C 286.1994 167.94286 286.25726 170.55927 286.13275 173.1703C 286.06628 174.49153 285.92413 175.80775 285.70697 177.11269C 285.5871 177.7822 285.4258 178.4436 285.22406 179.09315C 285.1185 179.43317 284.99106 179.76598 284.84247 180.0895L284.84247 180.0895L284.65985 180.49702C 284.61597 180.61026 284.5811 180.72678 284.55548 180.84547C 284.40753 181.93808 284.6542 183.04762 285.25116 183.97462C 285.8568 185.04301 286.57706 186.04224 287.3991 186.95462L287.3991 186.95462L288.0231 187.65573L288.34573 187.99773L288.50955 188.16644C 288.6008 188.25912 288.6842 188.35919 288.75894 188.46564C 289.05994 188.89763 289.18784 189.42686 289.11734 189.94864C 289.08185 190.20435 288.99905 190.45122 288.8732 190.67664C 288.77264 190.84384 288.66183 191.00467 288.5414 191.1582C 287.69598 192.36644 286.4335 193.21924 284.99698 193.55243L284.99698 193.55243L285.39835 193.22278C 284.28833 195.34177 283.0557 197.39423 281.7067 199.36969C 280.4089 201.38548 278.8801 203.24283 277.1514 204.90393C 276.2552 205.75412 275.21667 206.44035 274.08316 206.9314C 273.48434 207.17435 272.8492 207.31569 272.2039 207.34961C 271.8741 207.36171 271.54388 207.34346 271.21744 207.2951L271.21744 207.2951L270.31924 207.13489C 269.11426 206.92213 267.93024 206.60413 266.7808 206.18451C 266.17575 205.9549 265.59802 205.6589 265.05826 205.30194C 264.75894 205.10406 264.48547 204.86961 264.24426 204.604C 264.10413 204.45248 263.98285 204.28458 263.88306 204.10393C 263.82364 204.00078 263.7739 203.89235 263.7345 203.78001C 263.6726 203.61432 263.6427 203.43837 263.64636 203.26152L263.64636 203.26152L264.92297 203.98131C 263.24976 205.35706 261.85294 207.038 260.80676 208.93481C 260.27844 209.87907 259.8506 210.87616 259.53027 211.90967C 259.21185 212.93927 258.98087 213.99388 258.83972 215.06232L258.83972 215.06232L258.83154 215.11395C 258.76312 215.54578 258.4283 215.88666 257.99777 215.96278C 257.56723 216.03893 257.1358 215.83354 256.92346 215.45137C 255.70764 213.22705 254.71779 210.8865 253.96875 208.46478C 253.20432 206.0602 252.68474 203.58452 252.41797 201.0755C 252.12979 198.56424 252.19833 196.02484 252.62158 193.53278C 253.03041 191.05489 253.89145 188.67332 255.16174 186.5069C 255.18886 186.46074 255.24821 186.44527 255.29443 186.47229C 255.33514 186.4979 255.35207 186.54872 255.33484 186.59363C 254.88184 187.72849 254.51172 188.89468 254.22742 190.08307C 253.96135 191.26358 253.77682 192.46103 253.67517 193.66687C 253.51128 196.07083 253.62668 198.48566 254.01904 200.86304C 254.42299 203.23804 255.03276 205.57344 255.84143 207.84277C 256.62823 210.10558 257.58713 212.3049 258.7096 214.42139L258.7096 214.42139L256.79333 214.8104C 257.11795 212.40149 257.92572 210.08298 259.1682 207.99387C 259.7778 206.9547 260.48938 205.97885 261.29248 205.08078C 262.09344 204.16072 263.00195 203.34015 263.99854 202.63669L263.99854 202.63669L265.27527 203.35654C 265.27466 203.19376 265.2672 203.27786 265.27234 203.27145C 265.27954 203.29951 265.29028 203.32655 265.30435 203.3519C 265.34244 203.43312 265.39148 203.50876 265.4501 203.57669C 265.59848 203.75713 265.76898 203.91815 265.95755 204.056C 266.39102 204.37338 266.85712 204.64362 267.34793 204.86209C 268.38943 205.33958 269.47067 205.72527 270.57925 206.01474C 272.71634 206.88687 274.9501 205.89035 276.70853 204.39548C 278.46097 202.84142 279.96753 201.0305 281.1768 199.02457C 282.40356 197.02498 283.46103 194.92635 284.33817 192.75056C 284.40112 192.59639 284.5315 192.47972 284.69168 192.43416L284.69168 192.43416L284.73978 192.42067C 285.83078 192.05591 286.74908 191.30193 287.31924 190.30281C 287.39032 190.19452 287.4554 190.08244 287.51425 189.96706C 287.53986 189.90453 287.5531 189.83763 287.5532 189.77005C 287.55533 189.6406 287.51337 189.51427 287.4342 189.41183C 287.4134 189.3873 287.39108 189.36406 287.36743 189.34225L287.36743 189.34225L287.18408 189.1702L286.8224 188.82065C 286.5841 188.58466 286.3484 188.34549 286.12073 188.09787C 285.18515 187.09825 284.3822 185.98233 283.73172 184.77762C 282.9548 183.47379 282.68683 181.92894 282.97928 180.43962C 283.03253 180.24377 283.1009 180.05234 283.18375 179.86705L283.18375 179.86705L283.41995 179.39659C 283.55447 179.13643 283.67178 178.86774 283.77115 178.59221C 283.9809 178.01129 284.15485 177.41809 284.29202 176.8159C 284.58527 175.57635 284.81424 174.3225 284.97803 173.05931C 285.3329 170.51445 285.57312 167.9326 285.7661 165.34325C 285.76904 165.28975 285.8148 165.24873 285.8683 165.25163C 285.91605 165.2551 285.95453 165.29224 285.95966 165.33986z" stroke="none" fill="#020202" fill-rule="nonzero" />
    <path d="M257.8166 190.73225C 258.15115 192.5323 258.7176 194.28137 259.50177 195.9358C 259.8933 196.73695 260.37918 197.48845 260.94904 198.17433C 261.54517 198.87683 262.2044 199.52322 262.91852 200.10542C 261.98502 199.83441 261.1258 199.3536 260.40652 198.69972C 259.67276 198.04367 259.07205 197.25255 258.63724 196.36952C 258.2071 195.49554 257.9142 194.5605 257.76895 193.5973C 257.61197 192.64722 257.6281 191.67659 257.8166 190.73225z" stroke="none" fill="#020202" fill-rule="nonzero" />
    <path d="M255.24837 186.55022C 247.94148 203.73785 257.81662 214.9364 257.81662 214.9364C 239.74712 211.04832 230.365 221.9217 230.365 221.9217C 225.49629 211.50385 214.2728 213.03804 214.2728 213.03804C 214.2728 213.03804 207.39125 205.91917 216.17125 200.10542C 222.31725 196.0358 223.11456 192.25687 223.03983 190.35577C 226.99854 186.39708 232.76846 184.85103 238.17616 186.30002C 243.58385 187.74901 247.80774 191.97289 249.25671 197.38057C 250.7057 202.78827 249.15965 208.5582 245.20094 212.51689L245.20094 212.51689L245.20094 218.07697C 247.70024 209.46196 253.61311 195.74661 265.80527 196.56392C 267.0168 179.60292 281.3365 166.58391 298.3359 166.98805C 315.33533 167.39221 329.02014 181.07701 329.4243 198.07643C 329.82846 215.07585 316.80945 229.39554 299.84845 230.60709L299.84845 230.60709L299.84845 342.15533C 296.55853 347.47552 290.94986 349.09033 287.82983 349.58032C 289.9751 347.69775 293.12006 347.49863 295.48563 349.09555C 297.8512 350.6925 298.84235 353.68384 297.8984 356.37738C 296.95444 359.0709 294.3128 360.7891 291.46786 360.56C 288.62292 360.33087 286.29028 358.2121 285.78952 355.40222L285.78952 355.40222L294.1207 363.7334C 291.6857 362.52817 288.70526 362.89233 287.29138 370.21884C 252.60579 182.82983 253.6959 185.4793 255.24837 186.55022zM365.824 293.47842C 362.4947 293.70047 359.16492 293.81775 355.83475 293.83023C 352.50467 293.84756 349.1741 293.74167 345.84354 293.5408C 365.8867 259.8558 406.053 243.829 443.77994 254.46304C 481.50687 265.0971 507.3906 299.74136 506.89148 338.93518C 506.39233 378.129 479.63477 412.1029 441.6493 421.77277C 403.6638 431.44263 363.91864 414.39816 344.73978 380.21375C 348.06888 379.9936 351.39847 379.8683 354.7283 379.86627C 358.0579 379.85428 361.38797 379.9522 364.71854 380.16003z" stroke="none" fill="#020202" fill-rule="nonzero" />
    <path d="M290.1927 293.80746C 283.67926 294.35046 277.1469 294.63303 270.61176 294.829L270.61176 294.829L268.16046 294.9036L266.93463 294.93668C 266.5051 294.9605 266.07437 294.95163 265.64618 294.91013C 263.75818 294.75586 261.94055 294.12335 260.3647 293.07224C 258.86786 292.0806 257.53586 290.86035 256.41718 289.45596C 255.29268 288.0922 254.32184 286.60864 253.52228 285.0322C 253.49272 284.97403 253.46829 284.91342 253.44928 284.85104L253.44928 284.85104L253.42928 284.78354C 251.52254 278.38223 249.57393 271.9732 247.58345 265.5565L247.58345 265.5565L245.8321 260.82578L243.9488 256.14627C 242.64046 253.04819 241.29158 249.9667 239.85506 246.92496C 238.42268 243.88144 236.90376 240.87814 235.3863 237.8771C 233.8541 234.88298 232.29189 231.90591 230.69966 228.94589C 229.42026 226.37846 226.8439 224.7118 223.97766 224.59738L223.97766 224.59738L214.01208 224.96884C 210.63086 225.06955 207.24547 225.13412 203.84608 225.12369C 200.44264 225.06497 197.04677 224.96475 193.55934 224.56339C 192.68556 224.44838 191.80556 224.31088 190.8904 224.10922C 190.40831 224.00566 189.93211 223.87631 189.46388 223.72176C 188.83203 223.52727 188.23842 223.22533 187.70912 222.8292C 187.48164 222.64641 187.2797 222.43396 187.10866 222.19754C 186.86111 221.85025 186.69916 221.44934 186.636 221.02754C 186.60904 220.80151 186.60799 220.57315 186.63283 220.34688L186.63283 220.34688L186.70107 220.02077C 186.743 219.81363 186.80446 219.61092 186.88466 219.41536C 187.01114 219.10405 187.16824 218.80606 187.35365 218.52583C 187.50403 218.28452 187.67201 218.05463 187.85622 217.83803C 188.48213 217.10161 189.1733 216.42322 189.92128 215.81117C 192.66199 213.70476 195.53885 211.78172 198.5331 210.05464L198.5331 210.05464L207.24648 204.96187C 208.67747 204.10909 210.09975 203.23651 211.43422 202.31013C 211.77663 202.0796 212.08131 201.8445 212.41982 201.59938L212.41982 201.59938L213.53871 200.81923C 213.9286 200.58623 214.33266 200.37642 214.72731 200.15773C 215.13231 199.95753 215.5563 199.79567 215.96986 199.62117C 217.64336 199.0193 219.41498 198.73705 221.19264 198.78908C 222.92764 198.80765 224.64589 199.13086 226.26906 199.74397C 226.36234 199.78006 226.4127 199.8813 226.38522 199.97746C 226.35774 200.07362 226.26147 200.13298 226.16322 200.11433L226.16322 200.11433L226.14577 200.11098C 222.94688 199.41957 219.60913 199.80573 216.6526 201.20929C 216.31252 201.40814 215.95888 201.57587 215.62965 201.78497L215.62965 201.78497L214.67213 202.45282L213.78957 203.2121C 213.47267 203.495 213.13881 203.80902 212.80775 204.08398C 211.47914 205.21881 210.09254 206.20941 208.71144 207.20605C 205.94923 209.19147 203.11354 211.01495 200.355 212.91559C 197.60184 214.69965 194.96005 216.65009 192.44447 218.75598C 191.90004 219.22366 191.3973 219.7378 190.94191 220.29254C 190.85364 220.39697 190.77538 220.50946 190.70815 220.62854C 190.66068 220.69899 190.62125 220.77454 190.59059 220.85376C 190.55849 220.89862 190.60732 220.85358 190.5967 220.85193C 190.59709 220.84492 190.59491 220.83803 190.59059 220.83252C 190.60915 220.71115 190.6082 220.58759 190.58778 220.46652C 190.56105 220.168 190.42259 219.89056 190.20009 219.68973C 190.15224 219.65335 190.41982 219.80179 190.71327 219.87973C 191.04774 219.979 191.38722 220.06061 191.73027 220.12424C 192.46318 220.26624 193.2509 220.37161 194.04851 220.45505C 197.25334 220.81905 200.59709 220.9396 203.92339 221.02396C 207.25664 221.13876 210.60588 221.1802 213.95744 221.1854L213.95744 221.1854L218.98808 221.16379L221.50468 221.13351C 222.35393 221.13382 223.12224 221.07315 224.18596 221.14377C 228.21405 221.43494 231.73894 223.95956 233.3112 227.67953C 234.66374 230.77621 235.9688 233.8912 237.26591 237.00735L237.26591 237.00735L241.12392 246.36417L245.03334 255.69058C 250.1957 268.12125 256.3341 280.2714 259.92212 293.39896L259.92212 293.39896L259.82935 293.15067C 261.09253 295.83386 262.97495 298.17865 265.32166 299.99197C 266.42413 300.8167 267.71924 301.34576 269.08386 301.5289C 269.46378 301.58414 269.84744 301.60938 270.23132 301.60434L270.23132 301.60434L271.44702 301.6512L273.87866 301.7534C 280.36465 302.0228 286.85327 302.37875 293.36108 302.99515C 293.46796 303.0041 293.54736 303.098 293.53845 303.20486C 290.94342 304.12878 288.0908 302.77408 287.16687 300.17905C 286.24295 297.584 287.59766 294.73138 290.1927 293.80746z" stroke="none" fill="#020202" fill-rule="nonzero" />
    <path d="M331.13116 284.7975C 336.46417 284.64948 341.79617 284.56348 347.128 284.4805L347.128 284.4805L355.1253 284.3489L359.1236 284.29483C 360.51407 284.25345 361.90536 284.3412 363.2796 284.55692C 366.06198 285.00165 368.73154 285.98254 371.13995 287.4451C 371.75714 287.82065 372.28912 288.1861 372.85162 288.55234C 373.45496 288.9434 374.03278 289.37247 374.58163 289.83694C 376.81656 291.76022 378.41693 294.315 379.1722 297.1652C 379.3609 297.87622 379.495 298.6006 379.57333 299.332C 379.62582 299.69687 379.63022 300.06528 379.65488 300.4327L379.65488 300.4327L379.68613 301.44247L379.88266 309.43802L380.2474 325.4294L380.53793 341.42184C 380.73935 352.0834 380.85223 362.74612 380.87656 373.41L380.87656 373.41L380.83994 389.40683L380.827 393.4061C 380.8204 394.08096 380.83286 394.7206 380.81064 395.4244C 380.73868 399.08755 379.29224 402.5898 376.7584 405.23624C 374.75815 407.32352 372.16748 408.74924 369.33383 409.32224C 367.96072 409.5607 366.56683 409.65805 365.17392 409.61276L365.17392 409.61276L361.17123 409.61685L345.16586 409.5964C 334.49716 409.57114 323.82904 409.4701 313.16147 409.2933C 302.49448 409.09158 291.82138 408.9199 281.15488 408.44968C 270.4889 408.00308 259.81442 407.49948 249.16708 406.5626C 246.50351 406.3528 243.84518 406.0729 241.18332 405.8314C 238.524 405.598 235.85873 405.30673 233.19113 405.0021L233.19113 405.0021L229.19089 404.553L228.19113 404.437L227.69125 404.379C 227.5638 404.363 227.4374 404.33948 227.31271 404.3085L227.31271 404.3085L226.9985 404.23068C 226.23425 404.01752 225.49487 403.72363 224.79282 403.35397C 223.39998 402.6238 222.16307 401.62878 221.15146 400.4247C 220.16559 399.22162 219.40308 397.85178 218.9 396.38C 218.06024 393.57602 217.80447 390.6296 218.14853 387.72284C 218.32687 385.1855 218.34213 382.51648 218.34164 379.88574C 218.31418 374.6009 218.12106 369.29913 217.8215 364.0052C 217.50888 358.71112 217.12074 353.42084 216.65707 348.13434C 216.18979 342.84888 215.57431 337.5782 214.93234 332.31207C 214.28307 327.04645 213.53331 321.79492 212.68307 316.5575C 211.80649 311.3265 210.874 306.10388 209.81772 300.90692C 207.7583 290.50162 205.14294 280.21344 201.98312 270.08783C 200.41147 265.0241 198.66612 260.01898 196.81906 255.04828C 194.8807 250.11728 192.89157 245.19391 190.56454 240.42847C 189.47055 238.00977 188.19296 235.6872 187.00095 233.31525C 185.68436 230.94583 184.59346 228.45789 183.74265 225.88425C 182.93011 223.29485 182.42549 220.61873 182.23923 217.91124C 182.13548 216.53677 182.26851 215.1547 182.63254 213.82524C 182.82373 213.14401 183.15869 212.51164 183.61484 211.97075C 184.0875 211.4367 184.69969 211.04504 185.38268 210.83975C 185.44789 210.8161 185.52078 210.82916 185.57372 210.87401C 185.62665 210.91887 185.6515 210.98862 185.63887 211.05684C 185.62624 211.12506 185.57803 211.18127 185.51256 211.2042L185.51256 211.2042L185.4995 211.2089C 184.31036 211.67812 183.45305 212.73483 183.239 213.99515C 182.98125 215.26276 182.93214 216.56395 183.09361 217.84738C 183.40337 220.45422 184.01785 223.01573 184.92442 225.47939C 185.87068 227.92938 187.04572 230.28471 188.43396 232.51418C 189.76796 234.83711 191.11682 237.15736 192.31665 239.55403C 197.26245 249.07756 201.45665 258.97284 204.861 269.14972C 211.60315 289.5203 216.34766 310.49814 219.0275 331.78748C 220.3815 342.41663 221.37857 353.09235 221.85075 363.8023C 222.08768 369.1577 222.21745 374.51794 222.17937 379.89648C 222.14482 382.59595 222.10307 385.263 221.87431 388.04248C 221.80315 388.78235 221.79387 389.3065 221.74821 389.94556C 221.70392 390.54987 221.70506 391.15665 221.75163 391.7608C 221.79813 392.93207 221.9988 394.0921 222.34843 395.21094C 223.01102 397.3479 224.47871 399.14343 226.44121 400.21783C 226.91579 400.47665 227.41626 400.68488 227.93437 400.839L227.93437 400.839L228.10478 400.8836C 228.14069 400.89676 228.17839 400.90442 228.2166 400.90625L228.2166 400.90625L228.70903 400.96936L229.69403 401.09564L233.63226 401.61554C 236.25531 401.9721 238.88348 402.31702 241.53046 402.60675C 244.17291 402.90387 246.81134 403.23938 249.45807 403.50513C 260.04034 404.60736 270.6457 405.57697 281.2713 406.33344C 302.52228 407.84903 323.81924 408.5183 345.16217 408.34125C 350.49103 408.29767 355.8189 408.1723 361.14508 408.02594L361.14508 408.02594L365.1385 407.88095C 366.41257 407.88126 367.68335 407.75122 368.93097 407.4929C 370.1293 407.188 371.28015 406.72018 372.35138 406.10257C 373.3997 405.45856 374.35315 404.67154 375.18414 403.76425C 376.82556 401.94083 377.8761 399.66293 378.19733 397.23068C 378.2798 396.63098 378.3165 396.0259 378.3072 395.42062C 378.30743 394.79214 378.27203 394.09863 378.25592 393.44083L378.25592 393.44083L378.13293 389.4434L377.65494 373.45352C 377.39227 362.79285 377.21072 352.1311 377.11026 341.46823L377.11026 341.46823L376.9593 325.474L376.88263 309.4787L376.85846 301.4809L376.85602 300.4917C 376.84235 300.19397 376.85138 299.89404 376.81503 299.59753C 376.76892 299.00137 376.6771 298.40964 376.54037 297.82755C 376.26276 296.65814 375.8133 295.53638 375.20663 294.4988C 374.59097 293.45975 373.82587 292.51688 372.93588 291.7004C 372.47815 291.29065 371.9947 290.91064 371.48837 290.5627L371.48837 290.5627L369.87778 289.44498C 367.76508 288.0503 365.40164 287.07916 362.91876 286.58554C 361.6655 286.3395 360.39194 286.21143 359.11478 286.20297L359.11478 286.20297L355.116 286.07516L347.11917 285.7963C 341.78812 285.61502 336.4573 285.43076 331.12747 285.1846C 331.02335 285.1798 330.94168 285.0935 330.9427 284.9893C 330.94366 284.88507 331.02695 284.80032 331.13113 284.79752L331.13113 284.79752L331.13116 284.7975z" stroke="none" fill="#020202" fill-rule="nonzero" />
    <path d="M369.67316 305.13885L369.774 308.04108L369.67316 305.13885L369.774 308.04108L369.77374 308.0345L369.7945 305.1306L369.67316 305.13885L369.774 308.04108L369.77374 308.0345L369.7945 305.1306L369.67316 305.13885zM369.87262 310.9433L369.9588 313.8457L369.87262 310.9433L369.9588 313.8457L369.95856 313.8374L369.9649 310.93372L369.87262 310.9433L369.9588 313.8457L369.95856 313.8374L369.9649 310.93372zM370.04523 316.7481L370.1314 319.6505L370.04523 316.7481L370.1314 319.6505L370.13116 319.63922L370.13727 316.73553L370.04523 316.7481L370.1314 319.6505L370.13116 319.63922L370.13727 316.73553zM370.2176 322.55292L370.30402 325.45532L370.2176 322.55292L370.30402 325.45532L370.30377 325.4411L370.30988 322.5374L370.2176 322.55292L370.30402 325.45532L370.30377 325.4411L370.30988 322.5374zM370.37823 328.35785L370.4478 331.2605L370.37823 328.35785L370.4478 331.2605L370.4478 331.25012L370.43732 328.34668L370.37823 328.35785L370.4478 331.2605L370.4478 331.25012L370.43732 328.34668zM370.5174 334.16315L370.58722 337.06573L370.5174 334.16315L370.58722 337.06573L370.58698 337.05414L370.57648 334.1507L370.5174 334.16315L370.58722 337.06573L370.58698 337.05414L370.57648 334.1507zM370.6568 339.9684L370.72638 342.87106L370.6568 339.9684L370.72638 342.87106L370.72614 342.85825L370.71564 339.9548L370.6568 339.9684L370.72638 342.87106L370.72614 342.85825L370.71564 339.9548zM370.796 345.77362L370.86557 348.67627L370.796 345.77362L370.86557 348.67627L370.86533 348.66226L370.85483 345.75882L370.796 345.77362L370.86557 348.67627L370.86533 348.66226L370.85483 345.75882zM370.93512 351.57892L370.99078 354.48175L370.93512 351.57892L370.99078 354.48175L370.99078 354.502L370.96588 351.59875L370.93512 351.57892L370.99078 354.48175L370.99078 354.502L370.96588 351.59875zM371.0428 357.38458L371.09503 360.28748L371.0428 357.38458L371.09503 360.28748L371.09503 360.2812L371.06696 357.37793L371.0428 357.38458L371.09503 360.28748L371.09503 360.2812L371.06696 357.37793zM371.147 363.19037L371.19925 366.0932L371.147 363.19037L371.19925 366.0932L371.19925 366.08673L371.17117 363.18353L371.147 363.19037L371.19925 366.0932L371.19925 366.08673L371.17117 363.18353zM371.25128 368.99612L371.30328 371.89902L371.25128 368.99612L371.30328 371.89902L371.30328 371.8923L371.2752 368.9891L371.25128 368.99612L371.30328 371.89902L371.30328 371.8923L371.2752 368.9891zM371.35553 374.80182L371.40753 377.7047L371.35553 374.80182L371.40753 377.7047L371.40753 377.6978L371.37946 374.79462L371.35553 374.80182L371.40753 377.7047L371.40753 377.6978L371.37946 374.79462zM371.45978 380.6076L371.51178 383.51044L371.45978 380.6076L371.51178 383.51044L371.51178 383.534L371.4837 380.6308L371.45978 380.6076L371.51178 383.51044L371.51178 383.534L371.4837 380.6308zM371.564 386.41333L371.60013 389.33746L371.564 386.41333L371.60013 389.33746L371.59964 389.29785L371.56277 386.41577L371.564 386.41333L371.60013 389.33746L371.59964 389.29785L371.56277 386.41577zM371.17926 392.4187C 365.04065 389.7883 362.01367 382.83112 364.2736 376.54666C 366.5335 370.26218 373.29794 366.82602 379.7059 368.70743C 386.11386 370.5888 389.94702 377.13647 388.45084 383.64517C 386.95462 390.15387 380.64703 394.3704 374.06073 393.2647L374.06073 393.2647L384.97153 404.1755L384.97153 404.1755L384.97153 515.8327L371.17926 392.4187L384.97153 515.8327zM368.19513 397.8095C 362.16653 394.68005 359.67526 387.35544 362.54556 381.19925C 365.41586 375.04303 372.62793 372.24258 378.9006 374.84854C 385.17328 377.45453 388.27786 384.541 385.94095 390.9188C 383.60403 397.2966 376.65598 400.69965 370.18457 398.63602L370.18457 398.63602L381.19598 409.64743L381.19598 409.64743L381.19598 420.87717L368.19513 397.8095L381.19598 420.87717zM363.02838 401.14856C 359.0496 395.55734 360.2743 387.8106 365.7838 383.7194C 371.29333 379.6282 379.06326 380.6958 383.2652 386.12137C 387.4671 391.5469 386.55704 399.33688 381.21768 403.6478C 375.87833 407.95868 368.0715 407.20654 363.65338 401.95557L363.65338 401.95557L374.629 412.93118L374.629 412.93118L374.629 424.4661L363.02838 401.14856L374.629 424.4661zM357.04327 401.84857L354.1402 401.87018L357.04327 401.84857L354.1402 401.87018L357.03766 401.79028L357.04327 401.84857L354.1402 401.87018L357.03766 401.79028zM351.2386 401.882L348.33527 401.88565L351.2386 401.882L348.33527 401.88565L351.23395 401.8207L351.2386 401.882L348.33527 401.88565L351.23395 401.8207zM345.43414 401.8813L342.53156 401.86914L345.43414 401.8813L342.53156 401.86914L345.43024 401.82007L345.43414 401.8813L342.53156 401.86914L345.43024 401.82007zM339.62823 401.84912L336.72424 401.82104L339.62823 401.84912L336.72424 401.82104L339.62488 401.7871L339.62823 401.84912L336.72424 401.82104L339.62488 401.7871zM333.8228 401.78445L330.92072 401.74014L333.8228 401.78445L330.92072 401.74014L333.82037 401.72098L333.8228 401.78445L330.92072 401.74014L333.82037 401.72098zM328.01764 401.68793L325.11456 401.62793L328.01764 401.68793L325.11456 401.62793L328.0157 401.62445L328.01764 401.68793L325.11456 401.62793L328.0157 401.62445zM322.2115 401.56L319.31183 401.48413L322.2115 401.56L319.31183 401.48413L322.21027 401.49646L322.2115 401.56L319.31183 401.48413L322.21027 401.49646zM316.411 401.4151L313.50964 401.3421L316.411 401.4151L313.50964 401.3421L316.4093 401.38995L316.411 401.4151L313.50964 401.3421L316.4093 401.38995zM310.60773 401.26074L307.70587 401.17096L310.60773 401.26074L307.70587 401.17096L310.6065 401.23553L310.60773 401.26074L307.70587 401.17096L310.6065 401.23553zM304.80377 401.07263L301.90192 400.9655L304.80377 401.07263L301.90192 400.9655L304.80255 401.04736L304.80377 401.07263L301.90192 400.9655L304.80255 401.04736zM299.0003 400.8495L296.1031 400.72772L299.0003 400.8495L296.1031 400.72772L298.99908 400.8305L299.0003 400.8495L296.1031 400.72772L298.99908 400.8305zM293.20428 400.61542L290.30475 400.49365L293.20428 400.61542L290.30475 400.49365L290.3078 400.49384L293.2044 400.63422L293.20428 400.61542L290.30475 400.49365L290.3078 400.49384L293.2044 400.63422zM287.40485 400.36218L284.50485 400.2207L287.40485 400.36218L284.50485 400.2207L284.50815 400.2209L287.405 400.3809L287.40485 400.36218L284.50485 400.2207L284.50815 400.2209L287.405 400.3809zM281.6048 400.0691L278.705 399.907L281.6048 400.0691L278.705 399.907L278.70853 399.9072L281.60464 400.08786L281.6048 400.0691L278.705 399.907L278.70853 399.9072L281.60464 400.08786zM275.8056 399.73413L272.9062 399.55835L275.8056 399.73413L272.9062 399.55835L272.9122 399.55878L275.8065 399.76923L275.8056 399.73413L272.9062 399.55835L272.9122 399.55878L275.8065 399.76923zM270.01093 399.37952L267.10992 399.1885L270.01093 399.37952L267.10992 399.1885L267.1192 399.18918L270.013 399.43082L270.01093 399.37952L267.10992 399.1885L267.1192 399.18918L270.013 399.43082zM264.21173 398.98566L261.31427 398.77032L264.21173 398.98566L261.31427 398.77032L261.32477 398.77118L264.21393 399.03705L264.21173 398.98566L261.31427 398.77032L261.32477 398.77118L264.21393 399.03705zM258.41754 398.54218L255.52179 398.30066L258.41754 398.54218L255.52179 398.30066L255.5335 398.30176L258.41986 398.5937L258.41754 398.54218L255.52179 398.30066L255.5335 398.30176L258.41986 398.5937zM252.62666 398.0489L249.7325 397.78314L252.62666 398.0489L249.7325 397.78314L249.74715 397.78467L252.62971 398.10834L252.62666 398.0489L249.7325 397.78314L249.74715 397.78467L252.62971 398.10834zM246.83942 397.5026L243.9477 397.2066L246.83942 397.5026L243.9477 397.2066L243.96417 397.2085L246.84259 397.56213L246.83942 397.5026L243.9477 397.2066L243.96417 397.2085L246.84259 397.56213zM241.0572 396.89453L238.16437 396.56525L241.0572 396.89453L238.16437 396.56525L238.18256 396.56757L241.06012 396.95416L241.0572 396.89453L238.16437 396.56525L238.18256 396.56757L241.06012 396.95416zM235.159 396.04977C 239.99419 394.14755 245.46977 396.39117 247.57997 401.13928C 249.69017 405.88742 247.68617 411.45517 243.03406 413.76935C 238.38194 416.08353 232.7325 414.32294 230.21869 409.7756C 227.7049 405.22824 229.21875 399.50775 233.65277 396.79904L235.159 396.04977L233.66217 396.8065C 230.72064 393.47076 230.95924 388.4021 234.20111 385.35742C 237.44298 382.31277 242.51663 382.39233 245.66144 385.53714C 248.80626 388.68195 248.88582 393.7556 245.84116 396.99747C 242.7965 400.23932 237.72781 400.47794 234.39209 397.5364L235.159 396.04977L233.66217 396.8065L234.39209 397.5364zM230.2889 392.23773C 236.01924 391.4383 241.3883 395.2178 242.56866 400.88196C 243.74904 406.5461 240.33655 412.1556 234.76389 413.71164C 229.19121 415.26767 223.3663 412.23746 221.44156 406.78116C 219.51682 401.32483 222.15123 395.31058 227.46681 393.02573L230.2889 392.23773L227.46986 393.03616C 224.0751 389.2256 224.32686 383.4061 228.03798 379.90292C 231.7491 376.39975 237.57344 376.48364 241.18211 380.09225C 244.79079 383.70087 244.8748 389.5252 241.37172 393.2364C 237.86862 396.94757 232.04913 397.19943 228.23853 393.8048L230.2889 392.23773L227.46986 393.03616L228.23853 393.8048zM228.4107 386.3996C 238.73457 384.454 248.75348 391.00464 251.1117 401.24216C 253.46991 411.47964 247.3265 421.7533 237.19186 424.52032C 227.0572 427.28738 216.54536 421.5611 213.37395 411.54562C 210.20253 401.53015 215.50246 390.79706 225.38263 387.22635L228.4107 386.3996L225.38162 387.23764C 226.32637 387.4318 227.25394 387.70178 228.1553 388.045L228.4107 386.3996L225.38162 387.23764L228.1553 388.045zM228.58833 380.50983L228.64912 377.63434L228.64949 377.61365L228.58833 380.50983L228.64912 377.63434L228.64949 377.61365L228.64925 377.62524L228.54842 380.54517L228.58833 380.50983L228.64912 377.63434L228.64949 377.61365L228.64925 377.62524L228.54842 380.54517zM228.6556 374.75L228.62166 371.86157L228.62154 371.85028L228.6556 374.75L228.62166 371.86157L228.62154 371.85028L228.62166 371.85706L228.63365 374.76892L228.6556 374.75L228.62166 371.86157L228.62154 371.85028L228.62166 371.85706L228.63365 374.76892zM228.55267 368.9723L228.45331 366.08417L228.45294 366.07526L228.55267 368.9723L228.45331 366.08417L228.45294 366.07526L228.45306 366.08224L228.53094 368.98917L228.55267 368.9723L228.45331 366.08417L228.45294 366.07526L228.45306 366.08224L228.53094 368.98917zM228.32613 363.19446L228.17313 360.3078L228.17276 360.2998L228.32613 363.19446L228.17313 360.3078L228.17276 360.2998L228.17313 360.30695L228.30472 363.21082L228.32613 363.19446L228.17313 360.3078L228.17276 360.2998L228.17313 360.30695L228.30472 363.21082zM227.99554 357.42053L227.79425 354.53354L227.79364 354.52585L227.99554 357.42053L227.79425 354.53354L227.79364 354.52585L227.79413 354.5331L227.97441 357.43692L227.99554 357.42053L227.79425 354.53354L227.79364 354.52585L227.79413 354.5331L227.97441 357.43692zM227.57 351.65137L227.32307 348.76938L227.32246 348.7618L227.57 351.65137L227.32307 348.76938L227.32246 348.7618L227.32307 348.76926L227.54915 351.66818L227.57 351.65137L227.32307 348.76938L227.32246 348.7618L227.32307 348.76926L227.54915 351.66818zM227.05367 345.8883L226.76204 343.00873L226.76118 343.0011L227.05367 345.8883L226.76204 343.00873L226.76118 343.0011L226.76192 343.00867L227.03302 345.90567L227.05367 345.8883L226.76204 343.00873L226.76118 343.0011L226.76192 343.00867L227.03302 345.90567zM226.4482 340.13104L226.11275 337.2599L226.11174 337.25208L226.4482 340.13104L226.11275 337.2599L226.11174 337.25208L226.1126 337.25983L226.4279 340.14905L226.4482 340.13104L226.11275 337.2599L226.11174 337.25208L226.1126 337.25983L226.4279 340.14905zM225.7624 334.38922L225.3973 331.5194L225.39629 331.51147L225.7624 334.38922L225.3973 331.5194L225.39629 331.51147L225.77177 334.39612L225.7624 334.38922L225.3973 331.5194L225.39629 331.51147L225.77177 334.39612L225.77129 334.39313zM225.00958 328.65186L224.59906 325.78705L224.59784 325.779L225.00958 328.65186L224.59906 325.78705L224.59784 325.779L225.0191 328.6587L225.00958 328.65186L224.59906 325.78705L224.59784 325.779L225.0191 328.6587L225.01874 328.65576zM224.16534 322.92538L223.70807 320.06717L223.70673 320.05893L224.16534 322.92538L223.70807 320.06717L223.70673 320.05893L224.17499 322.93222L224.16534 322.92538L223.70807 320.06717L223.70673 320.05893L224.17499 322.93222L224.1745 322.9293zM223.22713 317.21277L222.72261 314.36676L222.72115 314.35834L223.22713 317.21277L222.72261 314.36676L222.72115 314.35834L223.237 317.21967L223.22713 317.21277L222.72261 314.36676L222.72115 314.35834L223.237 317.21967L223.23651 317.2168zM222.19318 311.5241L221.63861 308.6853L221.6369 308.67657L222.19318 311.5241L221.63861 308.6853L221.6369 308.67657L222.20343 311.53113L222.19318 311.5241L221.63861 308.6853L221.6369 308.67657L222.20343 311.53113L222.20282 311.52826zM221.05804 305.8511L220.45123 303.022L220.44923 303.013L221.05804 305.8511L220.45123 303.022L220.44923 303.013L221.06824 305.85828L221.05804 305.8511L220.45123 303.022L220.44923 303.013L221.06824 305.85828L221.06761 305.85547zM219.81744 300.19867L219.15607 297.38168L219.15387 297.37228L219.81744 300.19867L219.15607 297.38168L219.15387 297.37228L219.82794 300.20602L219.81744 300.19867L219.15607 297.38168L219.15387 297.37228L219.82794 300.20602L219.82721 300.20322zM218.47076 294.57056L217.76752 291.765L217.76508 291.75537L218.47076 294.57056L217.76752 291.765L217.76508 291.75537L218.51166 294.57037L218.47076 294.57056L217.76752 291.765L217.76508 291.75537L218.51166 294.57037L218.5097 294.56268zM217.03426 288.9662L216.27025 286.17572L216.26756 286.1659L217.03426 288.9662L216.27025 286.17572L216.26756 286.1659L217.07518 288.96527L217.03426 288.9662L216.27025 286.17572L216.26756 286.1659L217.07518 288.96527L217.0731 288.95795zM215.47469 283.39417L214.6468 280.62216L214.64375 280.6122L215.47469 283.39417L214.6468 280.62216L214.64375 280.6122L215.5157 283.3925L215.47469 283.39417L214.6468 280.62216L214.64375 280.6122L215.5157 283.3925L215.5135 283.3855zM213.78535 277.86057L212.88936 275.11002L212.88618 275.09995L213.78535 277.86057L212.88936 275.11002L212.88618 275.09995L213.82637 277.85812L213.78535 277.86057L212.88936 275.11002L212.88618 275.09995L213.82637 277.85812L213.82417 277.8516zM211.958 272.37146L210.98973 269.64575L210.98607 269.63556L211.958 272.37146L210.98973 269.64575L210.98607 269.63556L211.99889 272.36816L211.958 272.37146L210.98973 269.64575L210.98607 269.63556L211.99889 272.36816L211.99669 272.36194zM209.9836 266.934L208.93831 264.2372L208.93431 264.22684L209.9836 266.934L208.93831 264.2372L208.93431 264.22684L210.02452 266.92978L209.9836 266.934L208.93831 264.2372L208.93431 264.22684L210.02452 266.92978L210.0222 266.92398zM207.853 261.55646L206.73679 258.8883L206.73251 258.878L207.853 261.55646L206.73679 258.8883L206.73251 258.878L207.91696 261.54132L207.853 261.55646L206.73679 258.8883L206.73251 258.878L207.91696 261.54132L207.91196 261.52985zM205.57709 256.2387L204.3725 253.60919L204.36787 253.59912L205.57709 256.2387L204.3725 253.60919L204.36787 253.59912L205.64046 256.2213L205.57709 256.2387L204.3725 253.60919L204.36787 253.59912L205.64046 256.2213L205.63557 256.211zM203.12128 251.00134L201.822 248.417L201.81712 248.40742L203.12128 251.00134L201.822 248.417L201.81712 248.40742L203.18382 250.98158L203.12128 251.00134L201.822 248.417L201.81712 248.40742L203.18382 250.98158L203.17906 250.97249zM200.47137 245.85548C 200.00568 245.01936 199.55194 244.15639 199.10565 243.28078L199.10565 243.28078L199.10895 243.287C 199.55927 244.12386 200.02325 244.96169 200.51689 245.80373L200.51689 245.80373L200.51237 245.79579zM197.826 240.66469L196.58748 238.02716L197.826 240.66469L196.58748 238.02716L196.59041 238.03302L197.88509 240.6294L197.88802 240.63525L197.826 240.66469L196.58748 238.02716L196.59041 238.03302L197.88509 240.6294L197.88802 240.63525zM195.39948 235.37141L194.2514 232.69405L195.39948 235.37141L194.2514 232.69405L194.25409 232.69997L195.4826 235.3279L195.48529 235.33357L195.39948 235.37141L194.2514 232.69405L194.25409 232.69997L195.4826 235.3279L195.48529 235.33357zM193.15582 229.99745L192.1291 227.271L193.15582 229.99745L192.1291 227.271L192.13228 227.27881L193.24019 229.95563L193.24336 229.96332L193.15582 229.99745L192.1291 227.271L192.13228 227.27881L193.24019 229.95563L193.24336 229.96332zM191.2093 224.50484L190.49348 221.66841L191.2093 224.50484L190.49348 221.66841L190.49886 221.68741L191.29549 224.46298L191.30049 224.4805L191.2093 224.50484L190.49348 221.66841L190.49886 221.68741L191.29549 224.46298L191.30049 224.4805zM190.57806 218.7259C 190.26604 218.36188 190.29747 217.81633 190.64925 217.49055C 191.00102 217.16478 191.54738 217.17526 191.8864 217.5143C 192.22543 217.85332 192.23592 218.39967 191.91014 218.75145C 191.58437 219.10323 191.03882 219.13466 190.67479 218.82263L190.67479 218.82263L190.67479 219.82263L190.67479 219.82263L190.67479 219.43958C 190.55374 219.42047 190.48204 219.37892 190.49535 219.33557zM280.86334 284.53616C 278.7138 284.72977 276.56525 284.80948 274.41754 284.79184C 272.26996 284.77484 270.12323 284.65604 267.97748 284.42398C 277.13327 269.66104 295.06238 262.88705 311.69272 267.90747C 328.3231 272.9279 339.50894 288.4912 338.9664 305.85434C 338.42386 323.2175 326.28815 338.05206 309.3768 342.0244C 292.46548 345.99677 274.99426 338.11664 266.778 322.81088C 268.92767 322.61752 271.0761 322.5375 273.22382 322.55917C 275.3714 322.58017 277.51813 322.69864 279.66388 322.93094zM225.3431 401.58875C 225.71248 404.61346 225.87543 407.63818 225.99641 410.6629C 226.10335 413.68762 226.1645 416.71234 226.05183 419.73706C 225.91328 422.76184 225.63129 425.78656 225.56013 428.81128C 225.55489 429.56744 225.53047 430.32367 225.54097 431.07983C 225.12968 428.92648 226.17114 426.7567 228.10849 425.73068C 230.04584 424.70462 232.42586 425.06232 233.97604 426.6125C 235.52621 428.1627 235.8839 430.5427 234.85783 432.48004C 233.83177 434.4174 231.66202 435.45883 229.50867 435.04755L229.50867 435.04755L229.50867 436.98712L229.50867 436.98712L228.41724 440.7502L228.41724 440.7502L232.44879 440.7502L232.44879 440.7502L232.42499 439.61887C 232.3581 436.59415 232.2768 433.56943 232.30316 430.5447C 232.38495 424.4952 232.62787 418.44577 233.23859 412.39633C 233.84918 418.44577 234.09221 424.4952 234.17401 430.5447C 234.20026 433.56943 234.11908 436.59415 234.05219 439.61887L234.05219 439.61887L234.02678 440.756C 234.6612 438.47403 236.74734 436.90118 239.11583 436.91916C 241.4843 436.93716 243.54633 438.5415 244.146 440.8329C 244.74568 443.12424 243.73396 445.53302 241.67795 446.70898C 239.62195 447.88492 237.03276 447.53568 235.36179 445.85703L235.36179 445.85703L240.38965 450.8849L240.38965 450.8849L245.85852 450.8849L234.05219 439.61887L234.02678 440.756C 245.83276 450.4715 245.84143 450.09845 245.84546 449.72137C 245.85596 448.9652 245.83154 448.20898 245.8263 447.45282C 245.755 444.4281 245.47314 441.40338 245.3346 438.3786C 245.22192 435.35388 245.28308 432.32916 245.39001 429.30444C 245.51102 426.27972 245.67383 423.255 246.04333 420.2303zM363.44928 408.3631C 363.81866 410.94556 363.9815 413.52795 364.1026 416.1104C 364.20953 418.6928 364.2706 421.27527 364.15802 423.85767C 364.0384 426.44012 363.7259 429.02252 363.66632 431.60498C 363.64404 430.005 364.5937 428.55115 366.06772 427.92853C 367.54175 427.3059 369.24606 427.63876 370.37753 428.77023C 371.509 429.9017 371.84186 431.60602 371.21924 433.08005C 370.59662 434.55408 369.14276 435.50372 367.5428 435.48145C 367.59088 435.01514 367.54523 434.31317 367.5357 433.6759C 367.4688 431.09344 367.3875 428.51105 367.41388 425.9286C 308.50525 366.9661 308.53796 271.416 367.487 212.49387C 426.43607 153.57173 521.9862 153.58264 580.92175 212.51825C 639.85736 271.45383 639.8683 367.00397 580.94617 425.953C 522.024 484.90207 426.4739 484.93475 367.51138 426.0261L367.51138 426.0261L367.51138 427.96164C 367.5375 430.5441 367.45645 433.1265 367.38956 435.70895C 365.646 427.7091 370.30872 419.70416 378.12747 417.27414C 385.9462 414.84415 394.32498 418.7959 397.4232 426.37473C 400.52136 433.95358 397.31033 442.6432 390.02835 446.38626C 382.7464 450.12936 373.81128 447.68314 369.45145 440.75278L369.45145 440.75278L374.47794 445.77927L374.47794 445.77927L379.57068 445.77927C 379.5111 443.1968 379.19836 440.6144 379.07898 438.03195C 378.96643 435.44955 379.02747 432.8671 379.1344 430.2847C 379.2555 427.70224 379.41833 425.11984 379.78772 422.53738zM230.28107 221.87343C 233.78224 218.37225 238.88533 217.00488 243.66803 218.2864C 248.45074 219.56792 252.18646 223.30363 253.46799 228.08635C 254.7495 232.86905 253.38213 237.97214 249.88095 241.47331L249.88095 241.47331L249.88095 258.57574C 251.13657 258.63037 252.39511 258.67828 253.64995 258.75757L253.64995 258.75757L257.39227 259.19156L253.64995 258.75757L257.39227 259.19156L257.41913 259.21725C 259.42267 261.12857 261.44757 263.01773 263.43353 264.94727L263.43353 264.94727L262.7166 264.71106C 264.8916 251.97101 276.28528 242.89467 289.18915 243.62274C 302.093 244.35083 312.39337 254.65121 313.12146 267.55505C 313.84952 280.45892 304.7732 291.8526 292.03314 294.0276L263.43353 264.94727L262.7166 264.71106C 292.6972 294.5277 293.29327 295.11438 293.92426 295.65253C 294.23102 295.9319 294.55597 296.19153 294.84662 296.48654L294.84662 296.48654L295.68475 297.4055C 296.2293 298.02933 296.82928 298.60355 297.34125 299.25113L297.34125 299.25113L298.8205 301.2382C 299.05975 301.57382 299.32684 301.8903 299.54816 302.23746L299.54816 302.23746L300.18744 303.29532L301.46466 305.4105C 302.2232 306.86887 302.91867 308.36136 303.64874 309.83725L303.64874 309.83725L303.65167 309.8439L303.65778 309.86124C 297.28952 297.35956 300.95837 282.08307 312.30948 273.83694C 323.66058 265.5908 339.323 266.82385 349.24384 276.74472C 359.16467 286.66556 360.39777 302.32797 352.1516 313.67908C 343.9055 325.03018 328.629 328.69904 316.12732 322.33078L316.12732 322.33078L316.12732 324.45627L303.64874 309.83725L303.65167 309.8439L303.65778 309.86124L316.11145 324.51712L316.10632 324.53165C 327.11508 289.50613 360.92618 266.78574 397.51486 269.82666C 434.10352 272.8676 463.69998 300.8579 468.7756 337.2202C 473.85126 373.5825 453.05075 408.60745 418.69333 421.5514C 384.33588 434.4953 345.59552 421.902 325.41638 391.22986L325.41638 391.22986L373.44165 439.25513L373.44165 439.25513L404.5823 439.25513L404.5823 439.25513L404.5823 440.25513L303.64874 309.83725L303.65167 309.8439L303.65778 309.86124L316.11145 324.51712L316.10632 324.53165L404.56705 440.24127C 401.12305 437.17853 397.83475 434.00827 394.67166 430.68555C 391.49026 427.38745 388.4805 423.92102 385.626 420.32727C 384.2111 418.51984 382.83182 416.6825 381.53287 414.78528C 380.2587 412.87036 379.05228 410.9074 377.96927 408.87292C 388.02286 395.84964 406.2 392.34918 420.37115 400.70743C 434.5423 409.06567 440.2733 426.6673 433.73987 441.7668C 427.20645 456.86633 410.4529 464.73914 394.65884 460.1317C 378.86475 455.5243 368.9721 439.8783 371.58218 423.63425L371.58218 423.63425L371.67896 423.73102L371.67896 423.73102L371.67896 424.80792C 528.89856 -160.64227 657.8298 -627.1306 659.6549 -617.12317C 661.48 -607.1157 535.50793 -124.4021 378.28833 461.048L378.28833 461.048L467.6729 461.048C 470.58917 464.51437 473.70306 467.81406 476.87262 471.05722C 480.06195 474.27423 483.33075 477.44833 486.69025 480.45584L486.69025 480.45584L485.65326 480.26602C 494.26163 471.65762 506.8086 468.2957 518.5679 471.44656C 530.3271 474.59744 539.5121 483.78247 542.66296 495.54172C 545.8139 507.30096 542.4519 519.8479 533.84357 528.4563L533.84357 528.4563L533.84357 533.80383L486.69025 480.45584L485.65326 480.26602L534.18634 534.41394L486.69025 480.45584L485.65326 480.26602L534.18634 534.41394L486.69025 480.45584L485.65326 480.26602L534.18634 534.41394L486.69025 480.45584L485.65326 480.26602L534.18634 534.41394L534.19525 534.43756C 533.48627 532.9786 532.852 531.4769 532.08185 530.0492L532.08185 530.0492L530.80194 527.9786L530.16266 526.9436C 529.94415 526.6025 529.67163 526.29913 529.4262 525.97736L529.4262 525.97736L527.9191 524.0732C 527.39984 523.4544 526.79803 522.90857 526.23444 522.33203L526.23444 522.33203L525.37714 521.4788C 525.081 521.2063 524.7519 520.9701 524.44147 520.71423C 523.8035 520.2232 523.20306 519.68475 522.5389 519.2345C 525.9006 528.3085 524.3721 538.47266 518.4904 546.1566L518.4904 546.1566L518.4494 546.1601L518.4904 546.1566L518.4494 546.1601C 516.45404 544.2403 514.49786 542.2801 512.5202 540.34204L512.5202 540.34204L512.9542 540.5586L509.32068 540.06836C 508.10547 539.96954 506.8872 539.9007 505.66943 539.8236C 508.5748 548.07587 508.72614 557.04767 506.10077 565.3931L506.10077 565.3931L525.0734 584.3658L525.0734 584.3658L537.58905 584.3658L537.58905 584.3658L537.58246 584.37476L537.58905 584.3658L537.58246 584.37476z" stroke="none" fill="#020202" fill-rule="nonzero" />
    <path d="M250.02547 227.51308C 251.15852 222.11578 256.09808 218.38054 261.5999 218.76062C 267.1017 219.14072 271.48074 223.51971 271.8608 229.02153C 272.2409 234.52336 268.50568 239.46292 263.10837 240.59596L263.10837 240.59596L263.10837 253.9988L263.10837 253.9988L263.37198 271.54388L263.37198 271.54388L278.25555 286.42743L250.02547 227.51308L278.25555 286.42743L250.02547 227.51308zM277.49335 280.16925C 261.9849 244.36629 274.10864 202.59448 306.37534 180.65764C 338.64206 158.7208 381.945 162.81024 409.53455 190.3998C 437.1241 217.98935 441.21353 261.2923 419.27667 293.55902C 397.33984 325.8257 355.56805 337.94946 319.76505 322.44095L319.76505 322.44095L319.76505 330.2615C 324.47964 327.88126 328.11295 323.66043 330.74673 319.02383L330.74673 319.02383L330.9352 302.59402L330.9396 298.48282C 333.45554 288.3009 342.9814 281.44403 353.4354 282.28998C 363.88937 283.13596 372.18875 291.43533 373.03473 301.8893C 373.88068 312.3433 367.0238 321.86917 356.84186 324.38507L356.84186 324.38507L356.84186 336.1197L330.74673 319.02383L330.9352 302.59402L330.9396 298.48282C 358.0794 333.66492 359.37186 331.24915 360.5445 328.78876C 348.2015 316.088 348.41876 295.80746 361.031 283.37408C 373.64328 270.9407 393.92487 271.01312 406.448 283.53625C 418.97113 296.05942 419.04355 316.34097 406.61017 328.95325C 394.17676 341.5655 373.89624 341.78275 361.1955 329.43976L361.1955 329.43976L361.20258 329.4209L364.34198 320.97803L365.85663 316.74762C 365.3633 315.37515 365.88818 313.84415 367.11978 313.063C 368.35135 312.28186 369.96005 312.4597 370.9913 313.49094C 372.02255 314.5222 372.20038 316.1309 371.41925 317.36246C 370.6381 318.59406 369.1071 319.11893 367.73462 318.6256L367.73462 318.6256L369.192 318.6256L361.1955 329.43976L361.20258 329.4209L364.34198 320.97803L365.85663 316.74762C 368.44833 318.3479 367.27866 319.31543 366.4769 320.4154C 373.08582 323.9414 377.5004 330.5317 378.2462 337.98517C 378.99194 345.43866 375.97067 352.77298 370.19138 357.5385L370.19138 357.5385L386.08197 373.4291L386.08197 373.4291L393.6563 373.4291L393.6563 373.4291L393.6563 374.4291L393.6563 374.4291L394.6563 372.6354L394.6563 372.6354L394.9168 372.09378C 394.99182 371.94614 395.05988 371.79593 395.1238 371.64456C 394.66437 368.79675 396.09323 365.97748 398.6616 364.66418C 401.22992 363.35092 404.35205 363.84314 406.39178 365.88287C 408.43152 367.9226 408.92374 371.04474 407.61047 373.61307C 406.29718 376.18143 403.4779 377.6103 400.63013 377.15088L400.63013 377.15088L400.63013 377.15088C 400.61572 377.12207 400.67603 377.2032 400.72437 377.20087C 400.78125 377.20697 400.74435 377.2005 400.6726 377.21802C 403.37173 376.95242 405.77515 378.9252 406.0407 381.62433C 406.3063 384.32346 404.33353 386.72687 401.6344 386.99246L401.6344 386.99246L423.7381 409.09616L423.7381 409.09616L423.74957 408.90024L424.06647 416.14798L424.2249 419.77103L424.30426 421.5823C 429.03595 416.85062 435.93256 415.0027 442.39618 416.7346C 448.8598 418.46652 453.90848 423.5152 455.6404 429.97882C 457.3723 436.44244 455.52438 443.33905 450.7927 448.07074L423.7381 409.09616L423.74957 408.90024L424.06647 416.14798L424.2249 419.77103L424.30426 421.5823C 449.8635 450.32227 448.8054 452.50665 447.76706 454.68173L447.76706 454.68173L447.75876 454.69943L447.73727 454.73697C 445.42477 458.18362 443.12427 461.6379 440.77805 465.06326C 442.86935 461.4766 445.00656 457.91898 447.13156 454.3536L447.13156 454.3536L447.10178 454.40848C 448.07004 452.19235 449.04465 449.99347 449.88327 447.7504C 445.52094 436.46335 449.65567 423.6633 459.79666 417.0612C 469.93765 410.45905 483.31604 411.85745 491.87253 420.41397C 500.42905 428.97046 501.82745 442.34885 495.2253 452.48984C 488.6232 462.63083 475.82315 466.76556 464.5361 462.40323L464.5361 462.40323L464.41672 460.59842L464.1782 456.9893L463.70114 449.77274C 468.6074 444.8665 475.7584 442.95038 482.46045 444.7462C 489.16248 446.542 494.3974 451.77692 496.1932 458.47894C 497.989 465.181 496.0729 472.332 491.16666 477.23825L491.16666 477.23825L491.16666 489.35373L491.16666 489.35373L489.2971 495.24655L489.2971 495.24655L491.34595 495.24655L491.34595 495.24655L493.33594 495.9377C 494.67618 494.59747 496.62964 494.07404 498.46045 494.5646C 500.29126 495.05518 501.72128 496.4852 502.21185 498.316C 502.70242 500.14682 502.179 502.10028 500.83875 503.44052L500.83875 503.44052L509.54285 503.44052L464.5361 462.40323L464.41672 460.59842L464.1782 456.9893L463.70114 449.77274C 509.46277 503.63608 509.37732 503.829 509.28455 504.0176L509.28455 504.0176L509.0614 504.4938C 510.07257 505.639 510.7291 507.05344 510.95105 508.56497L510.95105 508.56497L513.397 508.56497L509.28455 504.0176L509.0614 504.4938C 514.07666 509.05856 515.4077 508.7294 516.5266 508.0154C 522.81885 501.7231 531.99005 499.26572 540.58545 501.56885C 549.18085 503.87198 555.89465 510.58572 558.19775 519.18115C 560.5009 527.77655 558.04346 536.9477 551.7512 543.24L551.7512 543.24L551.7512 555.6814L551.7512 555.6814L549.9816 559.0089L549.9816 559.0089L553.2093 559.0089C 550.4755 557.9265 544.382 557.119 538.78265 557.09717C 533.1832 557.0753 529.7085 557.84546 530.55597 558.9205C 531.40344 559.9955 536.3264 561.0624 542.2113 561.4464C 548.0961 561.8304 553.2293 561.4197 554.3643 560.47406L554.3643 560.47406L552.7393 564.6957C 551.63165 567.4954 550.5286 570.2922 549.3704 573.07025L549.3704 573.07025L549.40656 572.9441L549.3704 573.07025L549.40656 572.9441C 548.13995 575.3943 546.78156 577.77936 545.4793 580.183C 549.20416 587.7183 550.4748 596.2312 549.1127 604.5258L549.1127 604.5258L569.7115 625.12463L569.7115 625.12463L569.6639 629.2368C 569.6607 634.7273 569.575 640.1819 569.752 645.69934C 570.3251 629.3178 581.88525 615.3885 597.8806 611.80615C 613.8759 608.2238 630.2731 615.8917 637.7787 630.4639C 645.28424 645.0362 642.0057 662.83826 629.8012 673.7805C 617.5967 684.72284 599.54364 686.04614 585.874 677.0005L585.874 677.0005L609.4449 700.57135L609.4449 700.57135L630.8867 700.57135L630.8867 700.57135L630.8867 701.57135C 625.4961 699.83014 620.8612 696.5333 616.7295 692.89624C 633.65955 669.65436 664.0182 660.5671 690.9338 670.6846C 717.84937 680.80206 734.7049 707.637 732.1331 736.27606C 729.5613 764.91516 708.19434 788.31775 679.9068 793.4779C 651.6193 798.63806 623.3654 784.28735 610.8471 758.401L610.8471 758.401L610.9439 758.4978z" stroke="none" fill="#020202" fill-rule="nonzero" />
    <path d="M299.35065 252.74757C 301.22955 254.1761 302.99866 255.73616 304.73077 257.33395C 306.46954 258.92596 308.12384 260.6064 309.7464 262.31656C 311.357 264.03793 312.91608 265.81003 314.3858 267.6555C 313.575 266.79465 312.84113 265.87906 312.02982 265.02573C 311.2615 264.13834 310.47464 263.26767 309.6807 262.40408C 308.0867 260.68307 306.5198 258.94083 304.90213 257.24344L304.90213 257.24344L299.35065 252.74757zM275.57758 222.46681C 267.09344 178.43481 288.34384 134.02289 327.95413 113.00331C 367.5644 91.98375 416.25476 99.28096 447.96277 130.98898C 479.67078 162.69699 486.96796 211.38734 465.9484 250.99762C 444.92883 290.6079 400.5169 311.85828 356.48492 303.37415L356.48492 303.37415L356.48492 322.8949C 357.29742 322.87573 358.11237 322.87915 358.92682 322.92072L358.92682 322.92072L359.53766 322.94855C 359.47137 321.86053 360.08487 320.8449 361.07877 320.39734C 362.07266 319.94974 363.2398 320.16348 364.01056 320.93427C 364.78134 321.70502 364.9951 322.87216 364.5475 323.86606C 364.0999 324.85995 363.0843 325.47345 361.99625 325.40714L361.99625 325.40714L361.99625 326.40714L358.92682 322.92072L359.53766 322.94855L361.42105 326.5992C 358.35684 327.6373 355.28433 328.65097 352.18204 329.60062C 350.62784 330.06607 349.06924 330.52896 347.4777 330.9031C 346.68228 331.09378 345.88004 331.2681 345.0597 331.4136C 343.86804 325.5372 347.59702 319.78748 353.4485 318.47888C 359.29996 317.1703 365.1229 320.7839 366.54788 326.6081C 367.9729 332.4323 364.47614 338.32614 358.6815 339.867C 352.88684 341.40784 346.92447 338.0293 345.26837 332.2665L345.26837 332.2665L345.33478 332.26572L359.1768 332.09323L359.18973 332.09305C 359.82095 331.4618 360.74103 331.21524 361.60333 331.44632C 362.46564 331.67737 363.13916 332.3509 363.3702 333.2132C 363.6013 334.0755 363.35474 334.99557 362.7235 335.62683L362.7235 335.62683L362.7235 337.19812C 362.68207 338.19064 362.36404 339.06747 361.92517 339.39935C 366.67285 339.1114 371.2135 341.37817 373.8367 345.3458C 376.45993 349.31342 376.76715 354.37912 374.6427 358.6347C 372.51825 362.8903 368.28485 365.6892 363.53717 365.97717L345.26837 332.2665L345.33478 332.26572L359.1768 332.09323L359.18973 332.09305C 362.5987 366.2447 361.6563 366.4093 360.71686 366.62958L360.71686 366.62958L361.20636 366.36505C 365.10245 354.68042 376.575 347.25522 388.83038 348.48636C 401.08572 349.71753 410.8521 359.27637 412.3462 371.50247C 413.84024 383.72855 406.66312 395.35794 395.06488 399.50406C 383.46664 403.6502 370.54364 399.2062 363.94843 388.80368L363.94843 388.80368L375.60883 400.46408L375.60883 400.46408L382.52066 400.46408L360.71686 366.62958L361.20636 366.36505L383.1901 400.4872C 381.67108 401.40793 380.16922 402.35507 378.63516 403.2532C 377.10574 404.15836 375.58524 405.07712 374.0413 405.9603C 375.45853 404.8854 376.8992 403.8461 378.33096 402.79318C 379.7581 401.7333 381.21768 400.72238 382.65958 399.68503L382.65958 399.68503L382.70206 399.71463C 384.51572 397.90097 387.1592 397.19263 389.63675 397.85648C 392.11426 398.52032 394.04944 400.4555 394.7133 402.933C 395.37714 405.41055 394.6688 408.05405 392.85513 409.8677L392.85513 409.8677L392.85513 413.36014L392.85513 413.36014L390.2087 414.37897L382.65958 399.68503L382.70206 399.71463L390.24484 414.36987C 391.14255 414.13965 392.06467 413.96014 392.94138 413.6897C 385.09598 402.0894 387.35214 386.4264 398.15262 377.51193C 408.95306 368.5975 424.75977 369.35184 434.6622 379.2543C 444.56467 389.15677 445.319 404.96344 436.40454 415.7639C 427.4901 426.56436 411.82712 428.82053 400.2268 420.97513C 400.49414 420.73453 400.44214 420.645 400.458 420.681C 400.47 420.67825 400.43286 420.61905 400.3723 420.53525L400.3723 420.53525L400.86475 420.6608L387.02274 420.4883L387.13574 418.78403L400.3723 420.53525L400.86475 420.6608L387.02274 420.4883L387.13574 418.78403C 387.9109 418.68002 388.69434 418.5447 389.47705 418.3915C 391.04105 418.07632 392.61426 417.74503 394.18042 417.376C 397.31323 416.63486 400.43002 415.80994 403.53076 414.9012L403.53076 414.9012L404.11035 414.72775C 404.1027 413.9716 404.55334 413.28598 405.25052 412.99307C 405.9477 412.70013 406.75278 412.8582 407.2875 413.39288C 407.8222 413.9276 407.98026 414.7327 407.68732 415.42987C 407.3944 416.12704 406.7088 416.5777 405.95264 416.57004L405.95264 416.57004L405.95264 416.57004L405.95264 416.57004L405.95264 415.73752L405.95264 415.73752L405.43726 415.64352L405.43726 415.64352L404.83765 415.62497C 404.03906 415.59586 403.23706 415.60312 402.4358 415.63474C 416.04684 435.9024 416.5571 462.25467 403.74084 483.03403C 400.72916 484.10327 397.75848 485.298 394.82886 486.61826C 388.96875 489.23447 383.22705 492.16452 377.59338 495.32825z" stroke="none" fill="#020202" fill-rule="nonzero" />
    <path d="M333.66882 194.037L325.18146 206.91809C 326.79755 209.67609 323.18777 210.51817 323.18777 210.51817L323.18777 210.51817L319.07477 215.37642C 319.07477 215.37642 320.24597 217.32166 316.9554 218.4248L316.9554 218.4248L322.17184 220.68947C 322.17184 220.68947 323.94293 215.37642 326.63315 213.87631L326.63315 213.87631L324.40747 213.16986L334.43347 196.80493L347.98227 198.18877L337.94638 217.4667L329.04294 214.64088L326.63315 213.87631L324.40747 213.16986L334.43347 196.80493L347.98227 198.18877L337.94638 217.4667L329.04294 214.64088L328.48157 216.99251L335.1981 219.16031L326.63315 213.87631L324.40747 213.16986L334.43347 196.80493L347.98227 198.18877L337.94638 217.4667L329.04294 214.64088L328.48157 216.99251L335.1981 219.16031C 337.27893 215.60866 339.14667 212.79253 340.4821 213.16017L340.4821 213.16017L347.97287 200.32751L333.66882 194.037zM282.42047 218.42152C 282.2442 202.7125 291.5949 188.45998 306.0751 182.36668C 320.55533 176.27338 337.28314 179.552 348.39178 190.66068C 359.50046 201.76933 362.77905 218.49715 356.68576 232.97736C 350.59244 247.45757 336.33994 256.80823 320.6309 256.63196L320.6309 256.63196L320.6309 257.63196L282.42047 218.42152L320.6309 257.63196zM464.3858 325.27652C 459.63412 322.9054 423.8072 254.97757 423.8072 254.97757C 418.1069 244.45789 410.64542 239.2319 403.5421 236.81247L403.5421 236.81247L362.93445 263.59076C 363.56345 275.9686 360.48596 280.61383 360.48596 280.61383L360.48596 280.61383L394.74496 282.15256C 407.98425 285.84955 407.4616 296.55313 407.4616 296.55313L407.4616 296.55313L408.54562 375.3781C 430.53314 386.05267 457.74698 375.3781 457.74698 375.3781L457.74698 375.3781L453.71146 353.3032L449.79193 331.7122C 448.44684 324.5314 447.1015 317.3603 445.52414 310.2374C 444.77893 306.66638 443.92715 303.1243 443.01752 299.59192C 442.127 296.06934 441.1401 292.5562 440.00763 289.111C 437.78635 296.305 434.38507 303.0799 429.94278 309.1589L429.94278 309.1589L437.3741 316.59024L437.3741 316.59024L440.23523 316.59024L440.23523 316.59024L440.23523 329.28067L440.23523 329.28067L441.745 350.40137L441.745 350.40137L501.86984 350.40137C 495.9618 353.48868 492.02545 358.36313 491.54367 363.18854C 491.06186 368.01395 494.10776 372.05722 499.53403 373.79532C 504.9603 375.53342 511.94254 374.70227 517.8506 371.61496C 519.40857 378.78607 520.6764 386.0153 521.7217 393.2639C 522.7861 400.5126 523.55066 407.7999 524.1508 415.0969C 443.027 353.99033 464.3858 325.27652 464.3858 325.27652z" stroke="none" fill="#020202" fill-rule="nonzero" />
    <path d="M424.51367 357.30972L420.59415 335.71872C 419.24905 328.53793 417.90372 321.36682 416.32635 314.24393C 415.58115 310.6729 414.72937 307.13083 413.81973 303.59845C 412.92923 300.07587 411.94232 296.56274 410.80984 293.11752C 409.72546 289.65952 408.3663 286.2939 406.74527 283.05267C 405.9538 281.43475 404.9479 279.93085 403.75476 278.58157C 403.1544 277.92044 402.43973 277.37296 401.64508 276.96536C 400.84833 276.52356 399.8888 276.48764 399.06122 276.86862C 399.87946 276.38458 400.8805 276.32336 401.75165 276.70404C 402.62463 277.0583 403.42505 277.57007 404.11295 278.2138C 405.45215 279.5099 406.6139 280.9775 407.56793 282.57846C 409.42807 285.77322 410.9896 289.13272 412.23267 292.61426C 414.7082 299.5408 416.7064 306.62833 418.21344 313.82785C 419.77145 320.99896 421.03925 328.22818 422.08453 335.47678C 423.149 342.72546 423.91354 350.0127 424.51367 357.30972z" stroke="none" fill="none" />
    <path d="M379.52008 397.25592C 379.7857 401.7425 379.9068 406.23743 379.74713 410.7453C 367.31232 393.7754 370.21478 370.0619 386.37537 356.59195C 402.53595 343.122 426.38437 344.53848 440.83685 359.82666C 455.28937 375.11487 455.3644 399.0052 441.00827 414.38388C 426.6521 429.76257 402.81305 431.32886 386.56815 417.96072L386.56815 417.96072L386.35114 418.4343L386.23813 418.6688C 386.52267 418.41455 386.95438 418.41986 387.23254 418.6811C 387.5107 418.94232 387.54315 419.37283 387.30725 419.67276C 387.07135 419.97272 386.64532 420.04266 386.3259 419.83386L386.3259 419.83386L393.25143 419.83386C 392.9689 421.9661 393.8634 424.0938 395.59796 425.41556C 397.33252 426.7373 399.64365 427.05225 401.6607 426.24176C 403.6778 425.43127 405.0944 423.6185 405.37692 421.48627L386.56815 417.96072L386.35114 418.4343L386.23813 418.6688C 405.89328 421.24207 406.42233 421.00336 406.95505 420.78302C 407.11688 408.36224 417.26028 398.39352 429.68198 398.44748C 442.1037 398.50143 452.16013 408.55786 452.21408 420.97958C 452.268 433.40128 442.29932 443.54468 429.87854 443.7065L429.87854 443.7065L429.87854 460.4326C 449.22934 413.84064 465.2019 381.287 465.5543 387.72195C 465.90668 394.15692 450.5054 437.1437 431.1546 483.73566L431.1546 483.73566L486.08795 483.73566C 488.28253 484.15576 490.49054 484.51855 492.71222 484.75958C 474.54236 456.23407 480.75717 418.6043 507.13428 397.43604C 533.5114 376.26773 571.5941 378.34753 595.5091 402.26248C 619.4241 426.1774 621.5039 464.26013 600.3357 490.63727C 579.1674 517.0144 541.53766 523.22925 513.01215 505.05948L513.01215 505.05948L513.01215 507.2465L513.01215 507.2465L513.16254 507.54483L513.01215 507.2465L513.16254 507.54483C 512.6486 507.1064 512.0954 506.70462 511.54242 506.30466C 519.32916 512.6337 523.671 522.2674 523.2555 532.2932C 522.83997 542.3191 517.71576 551.5604 509.432 557.22345L509.432 557.22345L585.6674 633.45886C 584.29926 633.15985 582.9184 632.9889 581.5439 632.74615C 588.3374 622.421 601.16364 617.86633 612.9475 621.5945C 624.73145 625.32263 632.6039 636.42584 632.22235 648.7795C 631.8409 661.1332 623.2983 671.7295 611.3068 674.7234C 599.3153 677.7173 586.7946 672.3799 580.6511 661.6553L580.6511 661.6553L601.304 682.30817L601.304 682.30817L629.98047 682.30817L629.98047 682.30817L631.1731 682.3283C 627.23444 669.0805 632.79193 654.84955 644.6662 647.77704C 656.5404 640.7045 671.7005 642.5957 681.4734 652.3685C 691.2462 662.1414 693.1374 677.3015 686.0649 689.1758C 678.9924 701.05 664.7614 706.6075 651.5136 702.6688L651.5136 702.6688L651.5136 708.6073C 662.7837 689.7302 672.63666 681.0453 673.52094 689.20886C 674.40515 697.3725 665.9858 719.29333 654.7157 738.1704C 656.13586 738.39746 657.5748 738.5569 658.9811 738.8421C 660.391 739.113 661.80383 739.37195 663.193 739.75256C 664.59436 740.0764 665.97156 740.50287 667.35 740.9234C 657.9666 719.48865 665.1665 694.41034 684.4912 681.2175C 703.816 668.02466 729.7941 670.4527 746.3395 686.998C 762.88477 703.54333 765.31274 729.5215 752.11993 748.8462C 738.9271 768.17096 713.8488 775.37085 692.41406 765.9875L692.41406 765.9875L692.41406 767.12616L692.41406 767.12616L692.4261 767.1698C 693.2574 764.69464 695.8748 763.29736 698.39404 763.9839C 700.9132 764.6705 702.4598 767.20264 701.9203 769.7573C 701.3808 772.3121 698.94244 774.0027 696.36084 773.61206L696.36084 773.61206L716.82355 794.07477L716.82355 794.07477L787.635 794.07477L787.635 794.07477L787.635 795.07477L787.635 795.07477L788.635 791.8775L788.635 791.8775L785.531 790.7453C 788.44885 797.7528 788.1435 805.68787 784.69586 812.45044L784.69586 812.45044L810.28503 838.0396L692.41406 767.12616L692.4261 767.1698C 809.78705 838.2616 809.29944 838.49774 808.8085 838.7462C 811.82935 831.6487 819.3525 827.57886 826.94617 828.93414C 834.5398 830.2895 840.1905 836.71063 840.5695 844.415C 840.9485 852.1193 835.9553 859.0641 828.5313 861.15814C 821.1073 863.25226 813.22107 859.9404 809.5182 853.1736L809.5182 853.1736L825.3158 868.9712L825.3158 868.9712L833.6558 868.9712L833.6558 868.9712L833.6558 869.9712L833.6558 869.9712L834.80304 868.7162L834.80304 868.7162L834.95514 868.42804L835.01935 868.2811L835.15704 867.992C 842.26575 860.88324 852.6269 858.107 862.3376 860.709C 872.0483 863.3109 879.6332 870.8958 882.2351 880.6065C 884.8371 890.3172 882.06085 900.67834 874.95215 907.7871L834.80304 868.7162L834.95514 868.42804L835.01935 868.2811L835.15704 867.992C 875.2937 903.3359 875.5 898.8531 875.6633 894.3687L875.6633 894.3687L379.52008 397.25592zM436.23444 352.42255C 437.17145 354.14618 438.01422 355.91565 438.81573 357.70673C 439.61603 359.4977 440.37482 361.3122 441.02716 363.16968C 427.9745 339.09674 434.57132 309.09174 456.51752 292.71356C 478.46368 276.33536 509.1054 278.54962 528.46875 297.91302C 547.83215 317.2764 550.0464 347.9181 533.6682 369.8643C 517.29004 391.8105 487.28503 398.4073 463.21207 385.35458L463.21207 385.35458L463.21207 386.35458L463.21207 386.35458L464.21207 386.17416L464.21207 386.17416L464.09122 386.5649C 464.07462 386.62216 464.0424 386.71268 464.0382 386.74252C 463.91907 387.20303 464.3888 388.05276 464.97034 388.66397C 466.25574 383.11212 471.40207 379.33044 477.08438 379.7622C 482.76672 380.19397 487.28256 384.70984 487.71436 390.39215C 488.14612 396.07446 484.36447 401.22083 478.81262 402.50623L478.81262 402.50623L478.81262 407.79993L478.81262 407.79993L476.9627 433.3562L476.9627 433.3562L503.72772 433.3562C 514.3 438.2028 525.28894 442.7789 532.5551 445.36075C 539.8213 447.94257 542.26086 448.1379 538.9548 445.87317C 535.6487 443.6084 527.0993 439.22763 516.52704 434.38104C 526.38116 424.52698 540.7438 420.6785 554.2047 424.28534C 567.66565 427.89218 578.1798 438.40637 581.7866 451.8673C 585.3935 465.32822 581.54504 479.69086 571.6909 489.54492L571.6909 489.54492L571.6909 501.1704C 653.3585 363.07288 719.35535 254.33546 719.09906 258.29865C 718.8428 262.26178 652.4303 377.42468 570.76276 515.5222L570.76276 515.5222L577.1949 515.5222L577.1949 515.5222L578.13086 513.31476C 579.2571 514.5995 579.63824 516.3755 579.13855 518.0092C 578.6388 519.64294 577.32935 520.90173 575.6771 521.3366L575.6771 521.3366L597.0285 542.688L597.0285 542.688L630.51685 542.688L630.51685 542.688L630.51685 542.688C 628.66016 542.18823 626.697 541.6861 624.83057 541.05176C 641.8238 518.3796 671.71185 509.5955 698.2699 519.46796C 724.828 529.3404 741.721 555.51447 739.77856 583.78143C 737.8361 612.04846 717.52155 635.6657 689.8627 641.8125C 662.20386 647.9593 633.7983 635.1694 620.0661 610.38586L620.0661 610.38586L678.0949 668.4147L678.0949 668.4147L711.583 668.4147L711.583 668.4147L711.583 669.47473L711.583 669.47473L711.6372 705.45215L711.6372 705.45215L773.16736 705.45215C 771.6524 709.211 772.19415 713.7045 774.58856 717.24C 776.983 720.77545 780.8663 722.81573 784.7756 722.59235C 788.68494 722.3689 792.0264 719.91565 793.5414 716.1568C 795.3839 716.7623 797.2052 717.2475 799.12335 717.7627C 795.502 698.6178 804.78265 679.34827 822.00934 670.2443C 839.2361 661.1403 860.3851 664.3283 874.16266 678.1059C 887.9402 691.8834 891.1282 713.0325 882.0242 730.25916C 872.9202 747.48584 853.6507 756.7665 834.5058 753.14514L834.5058 753.14514L834.5058 765.27625C 835.5241 762.80365 836.556 762.1289 837.1374 763.55566C 837.7188 764.98236 837.7401 768.24176 837.19165 771.8673L837.19165 771.8673L842.99677 771.8673L842.99677 771.8673L842.99677 772.8673L842.99677 772.8673L843.99677 770.2516C 841.71466 776.0206 840.43506 776.4503 841.08905 771.22797C 853.7204 771.10175 865.4596 777.7238 871.88464 788.59973C 878.30963 799.4757 878.44434 812.9532 872.238 823.9554C 866.0317 834.9576 854.4272 841.813 841.79584 841.9392L841.79584 841.9392L908.70886 908.85223C 907.7831 908.53656 906.83185 908.1307 905.97107 907.74756C 911.694 915.52563 911.3206 926.21716 905.06915 933.5771L905.06915 933.5771L929.7117 958.2196L929.7117 958.2196L952.1574 958.2196L952.1574 958.2196L952.1574 959.2196L952.1574 959.2196L953.1574 954.0148L953.1574 954.0148L952.2116 952.6327L952.2116 952.6327L952.28754 952.3586L952.3422 952.18604L952.4433 951.8782C 954.0022 950.3193 956.2743 949.71045 958.40375 950.28107C 960.53314 950.8516 962.1965 952.51495 962.767 954.64435C 963.33765 956.7738 962.7288 959.0459 961.1699 960.6048L961.1699 960.6048L961.1699 960.6048L961.1699 960.6048L961.1699 956.6021L952.2116 952.6327L952.28754 952.3586L952.3422 952.18604L952.4433 951.8782L952.2116 952.6327L952.28754 952.3586L952.3422 952.18604L952.4433 951.8782L961.1699 956.6021zM279.76648 183.28531C 280.1517 183.28531 280.52115 183.43834 280.79358 183.71074C 281.06598 183.98314 281.21902 184.3526 281.21902 184.73784L279.76648 183.28531L281.21902 184.73784zM256.74115 185.088C 257.54337 185.088 258.19366 185.73831 258.19366 186.54051L256.74115 185.088L258.19366 186.54051zM275.63153 193.69844C 276.30536 194.52614 276.86237 195.27107 277.51923 195.92844C 277.88446 196.23502 278.29608 196.47415 278.73615 196.80173C 279.60895 195.87975 280.9645 195.60065 282.13058 196.10284C 283.29663 196.60504 284.0252 197.78174 283.955 199.04941C 283.88477 200.31706 283.0307 201.4061 281.8163 201.77644C 280.60193 202.14679 279.2855 201.7197 278.51984 200.70694L278.51984 200.70694L283.01425 205.20135zM282.42047 177.325C 283.34036 176.76952 284.51706 176.89113 285.30392 177.62303C 286.09076 178.35493 286.2971 179.51976 285.8095 180.4774C 285.32193 181.43504 284.2586 181.95345 283.20386 181.74771C 282.14914 181.54199 281.35855 180.66199 281.2666 179.59131L282.42047 177.325L281.2666 179.59131zM255.24837 186.55025C 255.70467 186.55775 256.14096 186.48683 256.7429 186.44643C 256.96933 185.84259 257.55148 185.44678 258.1963 185.45824C 258.8411 185.46971 259.4088 185.88597 259.61365 186.49748C 259.81848 187.109 259.61606 187.78322 259.10828 188.18077C 258.60046 188.57832 257.89737 188.61304 257.35287 188.26743zM276.5829 276.71658C 276.9681 276.71658 277.3376 276.86963 277.61 277.14203C 277.8824 277.41443 278.03543 277.7839 278.03543 278.16913L276.5829 276.71658L278.03543 278.16913zM281.46048 272.5358C 281.84573 272.5358 282.2152 272.68884 282.4876 272.96124C 282.76 273.23364 282.91306 273.60312 282.91302 273.98834L281.46048 272.5358L282.91302 273.98834zM286.5703 267.426C 287.37253 267.426 288.02283 268.0763 288.02283 268.8785L286.5703 267.426L288.02283 268.8785zM290.98334 261.61935C 291.78555 261.61935 292.43585 262.26965 292.43585 263.07187L290.98334 261.61935L292.43585 263.07187zM294.6996 255.81271C 295.5018 255.81271 296.1521 256.463 296.1521 257.26523L294.6996 255.81271L296.1521 257.26523z" stroke="none" fill="#020202" fill-rule="nonzero" />
    <path d="M421.978 378.6782C 421.19638 378.65036 420.57712 378.00867 420.57712 377.22653C 420.57712 376.4444 421.19638 375.8027 421.978 375.77487C 422.7596 375.8027 423.37888 376.4444 423.37888 377.22653C 423.37888 378.00867 422.7596 378.65036 421.978 378.6782z" stroke="none" fill="none" />
    <path d="M345.58 159.331L319.958 159.331L319.958 175.192L329.277 175.192L332.769 178.684L336.26 175.192L345.58 175.192L345.58 159.331L345.58 159.331" stroke="#000000" stroke-width="0.968" fill="none" />
    <path d="M371.202 134.96L345.58 134.96L345.58 150.821L354.899 150.821L358.391 154.313L361.882 150.821L371.202 150.821L371.202 134.96L371.202 134.96" stroke="#000000" stroke-width="0.968" fill="none" />
    <path d="M342.577 113.75L316.955 113.75L316.955 129.611L326.275 129.611L329.767 133.102L333.258 129.611L342.577 129.611L342.577 113.75L342.577 113.75" stroke="#000000" stroke-width="0.968" fill="none" />
</g>
</svg>